<?xml version="1.0" encoding="utf-8"?>
<!-- Generator: Adobe Illustrator 19.1.0, SVG Export Plug-In . SVG Version: 6.00 Build 0)  -->
<svg version="1.1" id="Layer_1" xmlns="http://www.w3.org/2000/svg" xmlns:xlink="http://www.w3.org/1999/xlink" x="0px" y="0px"
	 viewBox="0 0 64 64" enable-background="new 0 0 64 64" xml:space="preserve">
<g id="Daily-paper_2_">
	<path d="M63.39645,11.31495c-10.106102-4.3600998-20.6687012-4.4055996-31.3963966-0.1522999
		C21.2712517,6.9093504,10.7116518,6.9548502,0.6035516,11.31495c-0.3672,0.1582003-0.6055,0.5195007-0.6055,0.9199009v42.7548981
		c0,0.3418007,0.1738,0.660099,0.4619,0.8437004c0.1641,0.1054993,0.3516,0.1581993,0.5401,0.1581993
		c0.1435,0,0.2871-0.0303001,0.4208-0.0928001c11.3408995-5.2460976,21.1768017-5.2577972,30.0723-0.044899
		c0.0017014,0.0009995,0.0036011,0.0013008,0.0053005,0.0023003c0.0013008,0.0006981,0.0022011,0.0018997,0.0035,0.0025978
		c0.0367012,0.0211029,0.0769997,0.0313034,0.1154003,0.0474014c0.0415001,0.0172005,0.0811996,0.039402,0.1240997,0.0508995
		c0.0598011,0.0161018,0.1212006,0.0199013,0.1823997,0.0247993c0.0247002,0.0018005,0.0489006,0.009201,0.0736008,0.0093002
		c0.0695992,0.0002022,0.1381989-0.0116997,0.206398-0.0259972c0.0170021-0.0036011,0.0344009-0.0026016,0.0513-0.007
		c0.057003-0.0151024,0.1106033-0.0419998,0.1648026-0.0674019c0.0256996-0.012001,0.053299-0.0177002,0.0780983-0.0320015
		c0.0013008-0.0006981,0.0021019-0.0018997,0.0034027-0.0025978c0.0016975-0.0009995,0.0036964-0.0012016,0.0053978-0.0023003
		c8.8954964-5.2137985,18.732399-5.1982002,30.0722961,0.044899c0.1347008,0.0625,0.2773018,0.0928001,0.4209061,0.0928001
		c0.1883965,0,0.3758965-0.0527,0.5399971-0.1581993c0.2880974-0.1836014,0.461895-0.5018997,0.461895-0.8437004V12.2348509
		C64.0019455,11.8344507,63.763649,11.4731503,63.39645,11.31495z M2.0019517,53.4467506V12.8998508
		c9.3369007-3.8554001,19.0869007-3.8467007,28.9960995,0.0146999v40.3798981
		C22.3701515,48.8432503,12.6308517,48.8940506,2.0019517,53.4467506z M61.9980507,53.4467506
		c-5.375-2.3017998-10.5215034-3.4522018-15.4131012-3.4522018c-4.7812004,0-9.3183022,1.0997009-13.5829964,3.2999001V12.9145508
		c9.9110985-3.8633003,19.6610985-3.8682003,28.9960976-0.0146999V53.4467506z"/>
	<path d="M25.3007507,20.1684513c-5.9471989-1.9131012-11.4471989-1.9102001-16.8163986,0.0106983
		c-0.5194998,0.1856003-0.7909994,0.7578011-0.6044993,1.2783012c0.1465001,0.4081993,0.5313001,0.6630993,0.9414001,0.6630993
		c0.1113997,0,0.2255993-0.0184994,0.3369999-0.0585995c4.9375-1.7646008,10.0166006-1.762701,15.5311995,0.0107994
		c0.5244007,0.1679001,1.0888996-0.1191998,1.2578011-0.6464996C26.116251,20.9008503,25.8271523,20.3373508,25.3007507,20.1684513z
		"/>
	<path d="M25.3007507,30.3481503c-5.9462986-1.9120998-11.4471989-1.9102001-16.8163986,0.0107002
		c-0.5194998,0.1856003-0.7909994,0.7577991-0.6044993,1.2782993c0.1454997,0.4081993,0.5313001,0.6631012,0.9414001,0.6631012
		c0.1113997,0,0.2255993-0.0185013,0.3369999-0.0586014c4.9393997-1.7645988,10.0185003-1.7606983,15.5311995,0.0107994
		c0.5244007,0.1660004,1.0888996-0.1191978,1.2578011-0.6464977C26.116251,31.0805511,25.8271523,30.5170498,25.3007507,30.3481503z
		"/>
	<path d="M55.5751495,33.0444489c-5.9491997-1.9140987-11.4482002-1.9101982-16.8172989,0.0107002
		c-0.5195999,0.1855011-0.7911034,0.7578011-0.6044998,1.2783012c0.1464996,0.4081993,0.5311966,0.6631012,0.9413986,0.6631012
		c0.1113014,0,0.2256012-0.0186005,0.3368988-0.0586014c4.9394035-1.7666016,10.0195007-1.7626991,15.5303001,0.0107002
		c0.5312004,0.1679993,1.0898018-0.1190987,1.2588005-0.6455002C56.3896484,33.7768517,56.1005478,33.2133522,55.5751495,33.0444489
		z"/>
	<path d="M25.3017521,40.8295517c-5.9473-1.9131012-11.4482002-1.9101028-16.8174019,0.0107002
		c-0.5194998,0.1856003-0.7909994,0.7579002-0.6044993,1.2783966c0.1465001,0.4082031,0.5313001,0.6631012,0.9414001,0.6631012
		c0.1113997,0,0.2255993-0.0186005,0.3369999-0.0585976c4.9384003-1.7666016,10.0185003-1.7637024,15.5302,0.0106964
		c0.5303001,0.1680031,1.0898991-0.1190987,1.2588005-0.6454964C26.116251,41.5619507,25.8271523,40.9985504,25.3017521,40.8295517z
		"/>
	<path d="M55.5742493,42.1772499c-5.9491959-1.9120979-11.4491959-1.9101982-16.8163986,0.0107002
		c-0.5195999,0.1856003-0.7911034,0.7578011-0.6044998,1.2783012c0.1464996,0.4081993,0.5311966,0.6630974,0.9413986,0.6630974
		c0.1113014,0,0.2256012-0.0184975,0.3368988-0.0585976c4.9375-1.7646027,10.0185013-1.7626991,15.5312004,0.0107994
		c0.5253983,0.1669998,1.0889015-0.1192017,1.2579002-0.6464996C56.3896484,42.9096489,56.1005478,42.3461494,55.5742493,42.1772499
		z"/>
	<path d="M38.0781479,16.8178501c-0.3671989,0.1571999-0.6044998,0.5184994-0.6044998,0.9180012v8.7762985
		c0,0.3457012,0.1777,0.6660004,0.4706993,0.8487015c0.2939034,0.1826,0.6592026,0.2020988,0.9697037,0.0487995
		c4.7050972-2.3066998,10.1825981-2.2940006,16.7450981,0.044899c0.1093979,0.0381012,0.2226982,0.0576,0.3359985,0.0576
		c0.2041016,0,0.405201-0.0625,0.5760994-0.1826c0.2657013-0.1875,0.4239006-0.4921989,0.4239006-0.8174v-8.7762985
		c0-0.4122009-0.2519989-0.7813015-0.6357994-0.9317017C49.9218483,14.2865505,43.9414482,14.2904501,38.0781479,16.8178501z
		 M54.9951477,18.4262505v6.6942997c-3.0186005-0.9569988-5.8310966-1.4354992-8.4668007-1.4354992
		c-2.5029984,0-4.8466988,0.4315987-7.0546989,1.294899v-6.5761986
		C44.5048485,16.3949509,49.4697495,16.4018497,54.9951477,18.4262505z"/>
</g>
<g>
</g>
<g>
</g>
<g>
</g>
<g>
</g>
<g>
</g>
<g>
</g>
<g>
</g>
<g>
</g>
<g>
</g>
<g>
</g>
<g>
</g>
<g>
</g>
<g>
</g>
<g>
</g>
<g>
</g>
</svg>
