<?xml version="1.0" encoding="iso-8859-1"?>
<!-- Generator: Adobe Illustrator 19.0.0, SVG Export Plug-In . SVG Version: 6.00 Build 0)  -->
<svg version="1.1" id="Layer_1" xmlns="http://www.w3.org/2000/svg" xmlns:xlink="http://www.w3.org/1999/xlink" x="0px" y="0px"
	 viewBox="0 0 512 512" style="enable-background:new 0 0 512 512;" xml:space="preserve">
<g>
	<g>
		<g>
			<path d="M196.267,341.333c-4.719,0-8.533,3.823-8.533,8.533s3.814,8.533,8.533,8.533H230.4c4.719,0,8.533-3.823,8.533-8.533
				s-3.814-8.533-8.533-8.533H196.267z"/>
			<path d="M247.467,187.733h-51.2c-4.719,0-8.533,3.823-8.533,8.533s3.814,8.533,8.533,8.533h51.2c4.719,0,8.533-3.823,8.533-8.533
				S252.186,187.733,247.467,187.733z"/>
			<path d="M264.533,256H281.6c4.719,0,8.533-3.823,8.533-8.533s-3.814-8.533-8.533-8.533h-17.067c-4.719,0-8.533,3.823-8.533,8.533
				S259.814,256,264.533,256z"/>
			<path d="M384,494.933H76.8c-14.114,0-25.6-11.486-25.6-25.6V93.867c0-4.71-3.814-8.533-8.533-8.533s-8.533,3.823-8.533,8.533
				v375.467C34.133,492.86,53.274,512,76.8,512H384c4.719,0,8.533-3.823,8.533-8.533S388.719,494.933,384,494.933z"/>
			<path d="M469.333,102.4h-68.267c-14.114,0-25.6-11.486-25.6-25.6V51.2c0-4.71-3.814-8.533-8.533-8.533S358.4,46.49,358.4,51.2
				v25.6c0,23.526,19.14,42.667,42.667,42.667H460.8v281.6c0,14.114-11.486,25.6-25.6,25.6H145.067c-14.114,0-25.6-11.486-25.6-25.6
				v-358.4c0-14.114,11.486-25.6,25.6-25.6h218.334l65.766,65.766c3.337,3.337,8.73,3.337,12.066,0c3.336-3.337,3.336-8.73,0-12.066
				L372.966,2.5c-1.596-1.604-3.763-2.5-6.033-2.5H145.067C121.54,0,102.4,19.14,102.4,42.667v358.4
				c0,23.526,19.14,42.667,42.667,42.667H435.2c23.526,0,42.667-19.14,42.667-42.667V110.933
				C477.867,106.223,474.052,102.4,469.333,102.4z"/>
			<path d="M418.133,460.8h-307.2c-14.114,0-25.6-11.486-25.6-25.6V59.733c0-4.71-3.814-8.533-8.533-8.533s-8.533,3.823-8.533,8.533
				V435.2c0,23.526,19.14,42.667,42.667,42.667h307.2c4.719,0,8.533-3.823,8.533-8.533S422.852,460.8,418.133,460.8z"/>
			<path d="M307.2,298.667c0-4.71-3.814-8.533-8.533-8.533h-102.4c-4.719,0-8.533,3.823-8.533,8.533s3.814,8.533,8.533,8.533h102.4
				C303.386,307.2,307.2,303.377,307.2,298.667z"/>
			<path d="M196.267,256H230.4c4.719,0,8.533-3.823,8.533-8.533s-3.814-8.533-8.533-8.533h-34.133c-4.719,0-8.533,3.823-8.533,8.533
				S191.548,256,196.267,256z"/>
			<path d="M298.667,119.467h-102.4c-4.719,0-8.533,3.823-8.533,8.533s3.814,8.533,8.533,8.533h102.4
				c4.719,0,8.533-3.823,8.533-8.533S303.386,119.467,298.667,119.467z"/>
			<path d="M384,238.933h-68.267c-4.719,0-8.533,3.823-8.533,8.533s3.814,8.533,8.533,8.533H384c4.719,0,8.533-3.823,8.533-8.533
				S388.719,238.933,384,238.933z"/>
			<path d="M366.933,187.733H281.6c-4.719,0-8.533,3.823-8.533,8.533s3.814,8.533,8.533,8.533h85.333
				c4.719,0,8.533-3.823,8.533-8.533S371.652,187.733,366.933,187.733z"/>
			<path d="M264.533,358.4H384c4.719,0,8.533-3.823,8.533-8.533s-3.814-8.533-8.533-8.533H264.533c-4.719,0-8.533,3.823-8.533,8.533
				S259.814,358.4,264.533,358.4z"/>
			<path d="M366.933,307.2c4.719,0,8.533-3.823,8.533-8.533s-3.814-8.533-8.533-8.533H332.8c-4.719,0-8.533,3.823-8.533,8.533
				s3.814,8.533,8.533,8.533H366.933z"/>
		</g>
	</g>
</g>
<g>
</g>
<g>
</g>
<g>
</g>
<g>
</g>
<g>
</g>
<g>
</g>
<g>
</g>
<g>
</g>
<g>
</g>
<g>
</g>
<g>
</g>
<g>
</g>
<g>
</g>
<g>
</g>
<g>
</g>
</svg>
